<svg width="20" height="20" viewBox="0 0 20 20" fill="none" xmlns="http://www.w3.org/2000/svg">
    <g clip-path="url(#clip0_1_522)">
        <path d="M1.00172 15.0199C1.00226 15.0584 1.01039 15.0965 1.02565 15.1319C1.04091 15.1674 1.06301 15.1995 1.09067 15.2263C1.11833 15.2532 1.15101 15.2744 1.18686 15.2887C1.2227 15.3029 1.26101 15.31 1.29958 15.3094H15.0092C15.0478 15.31 15.0861 15.303 15.122 15.2888C15.1579 15.2745 15.1906 15.2534 15.2183 15.2265C15.246 15.1996 15.2682 15.1675 15.2835 15.132C15.2987 15.0966 15.3069 15.0585 15.3074 15.0199V14.6742C15.3142 14.5699 15.3281 14.0502 14.9855 13.4752C14.7693 13.1126 14.4556 12.7996 14.0531 12.5443C13.5662 12.2355 12.9467 12.0122 12.1974 11.8778C11.817 11.8243 11.4396 11.7509 11.0669 11.6579C10.0758 11.4048 9.9892 11.1808 9.98844 11.1785C9.98272 11.1564 9.97438 11.135 9.96359 11.1149C9.95531 11.0735 9.93535 10.9161 9.97376 10.4947C10.0709 9.4241 10.6452 8.79147 11.1065 8.28311C11.2518 8.12307 11.3893 7.97131 11.4951 7.82294C11.9519 7.18278 11.994 6.45413 11.9959 6.40894C11.9976 6.32887 11.9866 6.24904 11.9632 6.17246C11.918 6.03313 11.834 5.94652 11.7722 5.8825C11.7576 5.86785 11.7434 5.85278 11.7297 5.83732C11.7252 5.83204 11.7131 5.81773 11.724 5.74581C11.761 5.51411 11.7865 5.28073 11.8005 5.04653C11.8216 4.66921 11.8378 4.10512 11.7402 3.55571C11.7259 3.45077 11.7043 3.34696 11.6755 3.24504C11.5727 2.86697 11.4077 2.54388 11.1784 2.27727C11.1389 2.23396 10.1794 1.22289 7.39391 1.01577C7.00868 0.987155 6.62798 1.00259 6.25292 1.0218C6.142 1.02426 6.03161 1.03789 5.92342 1.06247C5.63573 1.13665 5.55891 1.31891 5.53895 1.42096C5.50544 1.59041 5.56418 1.72146 5.60297 1.80882C5.60862 1.82125 5.61577 1.83669 5.60334 1.87736C5.53895 1.97752 5.4369 2.0679 5.33335 2.15338C5.30322 2.17861 4.60507 2.78111 4.56666 3.56776C4.4631 4.16612 4.47064 5.09812 4.59302 5.74242C4.60055 5.77819 4.61072 5.83091 4.59377 5.86669C4.46197 5.98455 4.31285 6.11823 4.31323 6.42325C4.31474 6.45413 4.35729 7.18241 4.81406 7.82294C4.9195 7.97131 5.05695 8.12269 5.20193 8.28273L5.20268 8.28311C5.66397 8.79147 6.23823 9.4241 6.33539 10.4943C6.37342 10.916 6.35346 11.0731 6.34555 11.1149C6.33462 11.135 6.32615 11.1564 6.32032 11.1785C6.31995 11.1808 6.23371 11.4041 5.24711 11.6568C4.67775 11.8025 4.11742 11.877 4.10047 11.8789C3.37219 12.0021 2.75651 12.2201 2.27036 12.527C1.86932 12.7804 1.55489 13.0945 1.33648 13.4597C0.987031 14.0434 0.996445 14.5751 1.00134 14.6723L1.00172 15.0199Z" stroke="white" stroke-width="1.80751" stroke-linejoin="round"/>
        <mask id="path-2-outside-1_1_522" maskUnits="userSpaceOnUse" x="10.7699" y="10.7697" width="10" height="10" fill="black">
            <rect fill="white" x="10.7699" y="10.7697" width="10" height="10" />
            <path fill-rule="evenodd" clip-rule="evenodd" d="M16.2887 11.7697H14.4812V14.481H11.7699V16.2885H14.4812V18.9998H16.2887V16.2885H18.9999V14.481H16.2887V11.7697Z" />
        </mask>
        <path fill-rule="evenodd" clip-rule="evenodd" d="M16.2887 11.7697H14.4812V14.481H11.7699V16.2885H14.4812V18.9998H16.2887V16.2885H18.9999V14.481H16.2887V11.7697Z" fill="white" />
        <path d="M14.4812 11.7697V10.866H13.5774V11.7697H14.4812ZM16.2887 11.7697H17.1924V10.866H16.2887V11.7697ZM14.4812 14.481V15.3847H15.3849V14.481H14.4812ZM11.7699 14.481V13.5772H10.8661V14.481H11.7699ZM11.7699 16.2885H10.8661V17.1923H11.7699V16.2885ZM14.4812 16.2885H15.3849V15.3847H14.4812V16.2885ZM14.4812 18.9998H13.5774V19.9035H14.4812V18.9998ZM16.2887 18.9998V19.9035H17.1924V18.9998H16.2887ZM16.2887 16.2885V15.3847H15.3849V16.2885H16.2887ZM18.9999 16.2885V17.1923H19.9037V16.2885H18.9999ZM18.9999 14.481H19.9037V13.5772H18.9999V14.481ZM16.2887 14.481H15.3849V15.3847H16.2887V14.481ZM14.4812 12.6735H16.2887V10.866H14.4812V12.6735ZM15.3849 14.481V11.7697H13.5774V14.481H15.3849ZM11.7699 15.3847H14.4812V13.5772H11.7699V15.3847ZM12.6737 16.2885V14.481H10.8661V16.2885H12.6737ZM14.4812 15.3847H11.7699V17.1923H14.4812V15.3847ZM15.3849 18.9998V16.2885H13.5774V18.9998H15.3849ZM16.2887 18.096H14.4812V19.9035H16.2887V18.096ZM15.3849 16.2885V18.9998H17.1924V16.2885H15.3849ZM18.9999 15.3847H16.2887V17.1923H18.9999V15.3847ZM18.0962 14.481V16.2885H19.9037V14.481H18.0962ZM16.2887 15.3847H18.9999V13.5772H16.2887V15.3847ZM15.3849 11.7697V14.481H17.1924V11.7697H15.3849Z" fill="#EB8247" mask="url(#path-2-outside-1_1_522)" />
    </g>
    <defs>
        <clipPath id="clip0_1_522">
            <rect width="20" height="20" fill="white" />
        </clipPath>
    </defs>
</svg>
