<svg width="20" height="20" viewBox="0 0 20 20" xmlns="http://www.w3.org/2000/svg">
<path d="M9.99999 12.4583C9.88888 12.4583 9.78471 12.4411 9.68749 12.4067C9.59027 12.3722 9.49999 12.3131 9.41666 12.2292L5.58332 8.39583C5.43055 8.24306 5.35416 8.04861 5.35416 7.8125C5.35416 7.57639 5.43055 7.38194 5.58332 7.22917C5.7361 7.07639 5.93055 7 6.16666 7C6.40277 7 6.59721 7.07639 6.74999 7.22917L9.99999 10.4792L13.25 7.22917C13.4028 7.07639 13.5972 7 13.8333 7C14.0694 7 14.2639 7.07639 14.4167 7.22917C14.5694 7.38194 14.6458 7.57639 14.6458 7.8125C14.6458 8.04861 14.5694 8.24306 14.4167 8.39583L10.5833 12.2292C10.5 12.3125 10.4097 12.3717 10.3125 12.4067C10.2153 12.4417 10.1111 12.4589 9.99999 12.4583Z" />
</svg>
