<svg width="20" height="20" viewBox="0 0 20 20" xmlns="http://www.w3.org/2000/svg">
<path d="M7.05785 7.05782C7.17506 6.9406 7.33403 6.87476 7.49979 6.87476C7.66555 6.87476 7.82452 6.9406 7.94173 7.05782L10 9.11609L12.0583 7.05782C12.1755 6.9406 12.3345 6.87476 12.5002 6.87476C12.666 6.87476 12.8249 6.9406 12.9422 7.05782C13.0594 7.17503 13.1252 7.334 13.1252 7.49976C13.1252 7.66552 13.0594 7.82449 12.9422 7.9417L10.8839 9.99997L12.9422 12.0582C13.0594 12.1754 13.1252 12.3344 13.1252 12.5002C13.1252 12.6659 13.0594 12.8249 12.9422 12.9421C12.8249 13.0593 12.666 13.1252 12.5002 13.1252C12.3345 13.1252 12.1755 13.0593 12.0583 12.9421L10 10.8839L7.94173 12.9421C7.82452 13.0593 7.66555 13.1252 7.49979 13.1252C7.33403 13.1252 7.17506 13.0593 7.05785 12.9421C6.94064 12.8249 6.87479 12.6659 6.87479 12.5002C6.87479 12.3344 6.94064 12.1754 7.05785 12.0582L9.11612 9.99997L7.05785 7.9417C6.94064 7.82449 6.87479 7.66552 6.87479 7.49976C6.87479 7.334 6.94064 7.17503 7.05785 7.05782Z"/>
<path fill-rule="evenodd" clip-rule="evenodd" d="M6.09729 3.14082C8.69101 2.85329 11.3086 2.85329 13.9023 3.14082C15.4248 3.31082 16.654 4.50999 16.8323 6.04082C17.1406 8.67166 17.1406 11.3292 16.8323 13.96C16.6531 15.4908 15.424 16.6892 13.9023 16.86C11.3086 17.1475 8.69101 17.1475 6.09729 16.86C4.57479 16.6892 3.34562 15.4908 3.16729 13.96C2.8596 11.3292 2.8596 8.67158 3.16729 6.04082C3.34562 4.50999 4.57562 3.31082 6.09729 3.14082ZM13.764 4.38249C11.2622 4.10518 8.7374 4.10518 6.23562 4.38249C5.77249 4.43387 5.3402 4.63988 5.0086 4.96725C4.677 5.29462 4.46545 5.72422 4.40812 6.18666C4.11174 8.7208 4.11174 11.2808 4.40812 13.815C4.46562 14.2773 4.67725 14.7067 5.00884 15.0339C5.34043 15.3611 5.77261 15.567 6.23562 15.6183C8.71645 15.895 11.2831 15.895 13.764 15.6183C14.2268 15.5668 14.6588 15.3608 14.9902 15.0336C15.3217 14.7065 15.5332 14.2771 15.5906 13.815C15.887 11.2808 15.887 8.7208 15.5906 6.18666C15.533 5.72465 15.3214 5.29553 14.99 4.96851C14.6586 4.64149 14.2267 4.43564 13.764 4.38416" />
</svg>
