<svg width="20" height="20" viewBox="0 0 20 20" xmlns="http://www.w3.org/2000/svg">
<path fill-rule="evenodd" clip-rule="evenodd" d="M8.56464 9.7313L5.22917 6.39583C5.07639 6.24306 5 6.04861 5 5.8125C5 5.57639 5.07639 5.38194 5.22917 5.22917C5.38194 5.07639 5.57639 5 5.8125 5C6.04861 5 6.24306 5.07639 6.39583 5.22917L9.64583 8.47917L12.8958 5.22917C13.0486 5.07639 13.2431 5 13.4792 5C13.7153 5 13.9097 5.07639 14.0625 5.22917C14.2153 5.38194 14.2917 5.57639 14.2917 5.8125C14.2917 6.04861 14.2153 6.24306 14.0625 6.39583L10.7313 9.72707L14.0667 13.0625C14.2195 13.2153 14.2959 13.4098 14.2959 13.6459C14.2959 13.882 14.2195 14.0764 14.0667 14.2292C13.914 14.382 13.7195 14.4584 13.4834 14.4584C13.2473 14.4584 13.0528 14.382 12.9001 14.2292L9.65007 10.9792L6.40007 14.2292C6.24729 14.382 6.05284 14.4584 5.81673 14.4584C5.58062 14.4584 5.38618 14.382 5.2334 14.2292C5.08062 14.0764 5.00423 13.882 5.00423 13.6459C5.00423 13.4098 5.08062 13.2153 5.2334 13.0625L8.56464 9.7313Z" />
</svg>
