<svg width="20" height="20" viewBox="0 0 20 20" fill="none" xmlns="http://www.w3.org/2000/svg">
<path d="M2.95573 17.4483H17.0391C17.1496 17.4483 17.2556 17.4044 17.3337 17.3263C17.4118 17.2481 17.4557 17.1421 17.4557 17.0316C17.4557 16.9211 17.4118 16.8152 17.3337 16.737C17.2556 16.6589 17.1496 16.615 17.0391 16.615H2.95573C2.84522 16.615 2.73924 16.6589 2.6611 16.737C2.58296 16.8152 2.53906 16.9211 2.53906 17.0316C2.53906 17.1421 2.58296 17.2481 2.6611 17.3263C2.73924 17.4044 2.84522 17.4483 2.95573 17.4483ZM8.09073 14.3166C8.44273 14.2181 8.7639 14.0317 9.02406 13.775L16.9741 5.82498C17.2463 5.55165 17.3992 5.18159 17.3992 4.79581C17.3992 4.41003 17.2463 4.03997 16.9741 3.76664L16.1907 2.99164C15.9135 2.72686 15.5449 2.5791 15.1616 2.5791C14.7782 2.5791 14.4096 2.72686 14.1324 2.99164L6.1824 10.9333C5.92518 11.1918 5.74114 11.5138 5.64906 11.8666L5.0324 14.1666C5.00314 14.2717 5.00239 14.3827 5.03021 14.4881C5.05804 14.5936 5.11344 14.6897 5.19073 14.7666C5.30868 14.8826 5.467 14.9483 5.6324 14.95L8.09073 14.3166ZM8.4324 13.1833C8.27877 13.3397 8.08593 13.452 7.87406 13.5083L7.06573 13.725L6.2324 12.8916L6.44906 12.0833C6.50735 11.8723 6.61932 11.6799 6.77406 11.525L7.09073 11.2166L8.74906 12.875L8.4324 13.1833ZM9.34073 12.2833L7.6824 10.625L13.2907 5.01664L14.9491 6.67498L9.34073 12.2833ZM16.3824 5.24164L15.5407 6.08331L13.8824 4.42498L14.7241 3.57498C14.782 3.51682 14.8508 3.47068 14.9266 3.43919C15.0024 3.40771 15.0837 3.3915 15.1657 3.3915C15.2478 3.3915 15.3291 3.40771 15.4049 3.43919C15.4807 3.47068 15.5495 3.51682 15.6074 3.57498L16.3824 4.35831C16.4986 4.47592 16.5638 4.63462 16.5638 4.79998C16.5638 4.96534 16.4986 5.12403 16.3824 5.24164Z" fill="white"/>
</svg>
