<svg width="25" height="25" viewBox="0 0 25 25" fill="none" xmlns="http://www.w3.org/2000/svg">
<path d="M3.69584 21.8104H21.3C21.4381 21.8104 21.5706 21.7555 21.6683 21.6578C21.766 21.5602 21.8208 21.4277 21.8208 21.2896C21.8208 21.1514 21.766 21.0189 21.6683 20.9213C21.5706 20.8236 21.4381 20.7687 21.3 20.7687H3.69584C3.5577 20.7687 3.42523 20.8236 3.32755 20.9213C3.22988 21.0189 3.175 21.1514 3.175 21.2896C3.175 21.4277 3.22988 21.5602 3.32755 21.6578C3.42523 21.7555 3.5577 21.8104 3.69584 21.8104ZM10.1146 17.8958C10.5546 17.7727 10.9561 17.5397 11.2813 17.2187L21.2188 7.28122C21.5591 6.93957 21.7501 6.47699 21.7501 5.99476C21.7501 5.51254 21.5591 5.04996 21.2188 4.7083L20.2396 3.73955C19.8931 3.40857 19.4323 3.22388 18.9531 3.22388C18.4739 3.22388 18.0132 3.40857 17.6667 3.73955L7.72917 13.6666C7.40765 13.9897 7.1776 14.3923 7.0625 14.8333L6.29167 17.7083C6.2551 17.8396 6.25416 17.9783 6.28894 18.1101C6.32372 18.242 6.39298 18.3621 6.48959 18.4583C6.63703 18.6032 6.83492 18.6854 7.04167 18.6875L10.1146 17.8958ZM10.5417 16.4791C10.3496 16.6746 10.1086 16.815 9.84375 16.8854L8.83333 17.1562L7.79167 16.1146L8.0625 15.1041C8.13536 14.8403 8.27533 14.5999 8.46875 14.4062L8.86459 14.0208L10.9375 16.0937L10.5417 16.4791ZM11.6771 15.3541L9.60417 13.2812L16.6146 6.2708L18.6875 8.34372L11.6771 15.3541ZM20.4792 6.55205L19.4271 7.60414L17.3542 5.53122L18.4063 4.46872C18.4786 4.39603 18.5647 4.33835 18.6594 4.29899C18.7542 4.25964 18.8557 4.23938 18.9583 4.23938C19.0609 4.23938 19.1625 4.25964 19.2572 4.29899C19.352 4.33835 19.438 4.39603 19.5104 4.46872L20.4792 5.44789C20.6245 5.59491 20.7059 5.79327 20.7059 5.99997C20.7059 6.20667 20.6245 6.40504 20.4792 6.55205Z" fill="#EB8247"/>
</svg>
