<svg width="20" height="20" viewBox="0 0 20 20" xmlns="http://www.w3.org/2000/svg">
<path d="M9.12778 9.27223C8.35863 9.27223 7.60675 9.04415 6.96723 8.61683C6.3277 8.18951 5.82925 7.58215 5.53491 6.87155C5.24057 6.16095 5.16356 5.37902 5.31361 4.62465C5.46367 3.87028 5.83405 3.17735 6.37792 2.63348C6.92179 2.08961 7.61472 1.71923 8.36909 1.56917C9.12346 1.41912 9.90539 1.49613 10.616 1.79047C11.3266 2.08481 11.934 2.58326 12.3613 3.22279C12.7886 3.86231 13.0167 4.61419 13.0167 5.38334C13.0167 6.41473 12.6069 7.40389 11.8776 8.1332C11.1483 8.8625 10.1592 9.27223 9.12778 9.27223ZM9.12778 2.65C8.57839 2.65 8.04133 2.81292 7.58453 3.11814C7.12772 3.42337 6.77169 3.8572 6.56145 4.36477C6.3512 4.87234 6.29619 5.43086 6.40337 5.9697C6.51056 6.50853 6.77511 7.00349 7.16359 7.39197C7.55207 7.78045 8.04702 8.045 8.58586 8.15218C9.1247 8.25937 9.68321 8.20436 10.1908 7.99411C10.6984 7.78387 11.1322 7.42784 11.4374 6.97103C11.7426 6.51423 11.9056 5.97717 11.9056 5.42778C11.9056 5.063 11.8337 4.70179 11.6941 4.36477C11.5545 4.02776 11.3499 3.72154 11.092 3.4636C10.834 3.20565 10.5278 3.00105 10.1908 2.86145C9.85377 2.72185 9.49256 2.65 9.12778 2.65ZM12.2222 9.94445C9.21579 9.26794 6.07057 9.59378 3.26667 10.8722C2.88105 11.0564 2.5557 11.3464 2.3285 11.7083C2.1013 12.0703 1.9816 12.4893 1.98333 12.9167V16.2222C1.98333 16.2952 1.9977 16.3674 2.02562 16.4348C2.05354 16.5022 2.09446 16.5635 2.14605 16.6151C2.19764 16.6667 2.25888 16.7076 2.32629 16.7355C2.39369 16.7634 2.46593 16.7778 2.53889 16.7778C2.61185 16.7778 2.68409 16.7634 2.75149 16.7355C2.81889 16.7076 2.88014 16.6667 2.93173 16.6151C2.98331 16.5635 3.02424 16.5022 3.05216 16.4348C3.08007 16.3674 3.09444 16.2952 3.09444 16.2222V12.9167C3.08961 12.7004 3.14801 12.4874 3.26249 12.3039C3.37697 12.1203 3.54254 11.9741 3.73889 11.8833C5.42793 11.1034 7.2674 10.7033 9.12778 10.7111C10.1702 10.7098 11.209 10.8329 12.2222 11.0778V9.94445ZM12.3 15.2278H15.7111V16.0056H12.3V15.2278Z"/>
<path d="M18.4278 11.9278H15.5556V13.0389H17.8722V17.6889H10V13.0389H13.5V13.2722C13.5 13.4196 13.5585 13.5609 13.6627 13.6651C13.7669 13.7692 13.9082 13.8278 14.0556 13.8278C14.2029 13.8278 14.3442 13.7692 14.4484 13.6651C14.5526 13.5609 14.6111 13.4196 14.6111 13.2722V11.1111C14.6111 10.9638 14.5526 10.8225 14.4484 10.7183C14.3442 10.6141 14.2029 10.5556 14.0556 10.5556C13.9082 10.5556 13.7669 10.6141 13.6627 10.7183C13.5585 10.8225 13.5 10.9638 13.5 11.1111V11.9278H9.44444C9.2971 11.9278 9.15579 11.9863 9.0516 12.0905C8.94742 12.1947 8.88889 12.336 8.88889 12.4833V18.2444C8.88889 18.3918 8.94742 18.5331 9.0516 18.6373C9.15579 18.7415 9.2971 18.8 9.44444 18.8H18.4278C18.5751 18.8 18.7164 18.7415 18.8206 18.6373C18.9248 18.5331 18.9833 18.3918 18.9833 18.2444V12.4833C18.9833 12.336 18.9248 12.1947 18.8206 12.0905C18.7164 11.9863 18.5751 11.9278 18.4278 11.9278Z"/>
</svg>
