<svg width="20" height="20" viewBox="0 0 20 20" fill="none" xmlns="http://www.w3.org/2000/svg">
<path d="M7.5 3.74999H6.66667C4.7025 3.74999 3.72 3.74999 3.11 4.35999C2.5 4.96999 2.5 5.95249 2.5 7.91666V12.0833C2.5 14.0475 2.5 15.0292 3.11 15.64C3.72 16.25 4.7025 16.25 6.66667 16.25H7.5M7.5 5.39666C7.5 3.48582 7.5 2.52999 8.08917 2.00749C8.67833 1.48499 9.57917 1.64166 11.3808 1.95582L13.3225 2.29499C15.3175 2.64249 16.315 2.81666 16.9075 3.54832C17.5 4.28082 17.5 5.33916 17.5 7.45666V12.5442C17.5 14.6608 17.5 15.7192 16.9083 16.4517C16.315 17.1833 15.3167 17.3575 13.3217 17.7058L11.3817 18.0442C9.58 18.3583 8.67917 18.515 8.09 17.9925C7.5 17.47 7.5 16.5142 7.5 14.6033V5.39666Z" stroke="white" stroke-width="1.5"/>
<path d="M10 9.16669V10.8334" stroke="white" stroke-width="1.5" stroke-linecap="round"/>
</svg>
