<svg width="20" height="20" viewBox="0 0 20 20" xmlns="http://www.w3.org/2000/svg">
<path d="M9.41087 1.91074C9.56715 1.75451 9.77907 1.66675 10 1.66675C10.221 1.66675 10.4329 1.75451 10.5892 1.91074L13.9225 5.24407C14.0743 5.40124 14.1583 5.61174 14.1564 5.83024C14.1545 6.04874 14.0669 6.25775 13.9124 6.41225C13.7579 6.56676 13.5489 6.6544 13.3304 6.6563C13.1119 6.6582 12.9014 6.5742 12.7442 6.4224L10.8334 4.51157V13.3332C10.8334 13.5542 10.7456 13.7662 10.5893 13.9225C10.433 14.0788 10.2211 14.1666 10 14.1666C9.77903 14.1666 9.56707 14.0788 9.41079 13.9225C9.2545 13.7662 9.16671 13.5542 9.16671 13.3332V4.51157L7.25587 6.4224C7.09871 6.5742 6.8882 6.6582 6.66971 6.6563C6.45121 6.6544 6.2422 6.56676 6.08769 6.41225C5.93319 6.25775 5.84554 6.04874 5.84365 5.83024C5.84175 5.61174 5.92574 5.40124 6.07754 5.24407L9.41087 1.91074ZM4.16671 14.1666C4.38772 14.1666 4.59968 14.2544 4.75596 14.4106C4.91224 14.5669 5.00004 14.7789 5.00004 14.9999V16.6666H15V14.9999C15 14.7789 15.0878 14.5669 15.2441 14.4106C15.4004 14.2544 15.6124 14.1666 15.8334 14.1666C16.0544 14.1666 16.2663 14.2544 16.4226 14.4106C16.5789 14.5669 16.6667 14.7789 16.6667 14.9999V16.6666C16.6667 17.1086 16.4911 17.5325 16.1786 17.8451C15.866 18.1576 15.4421 18.3332 15 18.3332H5.00004C4.55801 18.3332 4.13409 18.1576 3.82153 17.8451C3.50897 17.5325 3.33337 17.1086 3.33337 16.6666V14.9999C3.33337 14.7789 3.42117 14.5669 3.57745 14.4106C3.73373 14.2544 3.94569 14.1666 4.16671 14.1666Z" />
</svg>
