<svg width="25" height="25" viewBox="0 0 25 25" fill="none" xmlns="http://www.w3.org/2000/svg">
<path d="M7.5 2.5C6.83696 2.5 6.20107 2.76339 5.73223 3.23223C5.26339 3.70107 5 4.33696 5 5V13.75H6.25V5C6.25 4.66848 6.3817 4.35054 6.61612 4.11612C6.85054 3.8817 7.16848 3.75 7.5 3.75H12.5V8.125C12.5 8.62228 12.6975 9.09919 13.0492 9.45083C13.4008 9.80246 13.8777 10 14.375 10H18.75V20C18.75 20.3315 18.6183 20.6495 18.3839 20.8839C18.1495 21.1183 17.8315 21.25 17.5 21.25H7.5C7.16848 21.25 6.85054 21.1183 6.61612 20.8839C6.3817 20.6495 6.25 20.3315 6.25 20V17.5H5V20C5 20.663 5.26339 21.2989 5.73223 21.7678C6.20107 22.2366 6.83696 22.5 7.5 22.5H17.5C18.163 22.5 18.7989 22.2366 19.2678 21.7678C19.7366 21.2989 20 20.663 20 20V9.2675C19.9996 8.77039 19.8017 8.29379 19.45 7.9425L14.5575 3.04875C14.206 2.69748 13.7294 2.50011 13.2325 2.5H7.5ZM18.4913 8.75H14.375C14.2092 8.75 14.0503 8.68415 13.9331 8.56694C13.8158 8.44973 13.75 8.29076 13.75 8.125V4.00875L18.4913 8.75ZM8.125 12.5C7.95924 12.5 7.80027 12.5658 7.68306 12.6831C7.56585 12.8003 7.5 12.9592 7.5 13.125C7.5 13.2908 7.56585 13.4497 7.68306 13.5669C7.80027 13.6842 7.95924 13.75 8.125 13.75H16.875C17.0408 13.75 17.1997 13.6842 17.3169 13.5669C17.4342 13.4497 17.5 13.2908 17.5 13.125C17.5 12.9592 17.4342 12.8003 17.3169 12.6831C17.1997 12.5658 17.0408 12.5 16.875 12.5H8.125ZM3.125 15C2.95924 15 2.80027 15.0658 2.68306 15.1831C2.56585 15.3003 2.5 15.4592 2.5 15.625C2.5 15.7908 2.56585 15.9497 2.68306 16.0669C2.80027 16.1842 2.95924 16.25 3.125 16.25H11.875C12.0408 16.25 12.1997 16.1842 12.3169 16.0669C12.4342 15.9497 12.5 15.7908 12.5 15.625C12.5 15.4592 12.4342 15.3003 12.3169 15.1831C12.1997 15.0658 12.0408 15 11.875 15H3.125ZM8.125 17.5C7.95924 17.5 7.80027 17.5658 7.68306 17.6831C7.56585 17.8003 7.5 17.9592 7.5 18.125C7.5 18.2908 7.56585 18.4497 7.68306 18.5669C7.80027 18.6842 7.95924 18.75 8.125 18.75H16.875C17.0408 18.75 17.1997 18.6842 17.3169 18.5669C17.4342 18.4497 17.5 18.2908 17.5 18.125C17.5 17.9592 17.4342 17.8003 17.3169 17.6831C17.1997 17.5658 17.0408 17.5 16.875 17.5H8.125Z" fill="#EB8247"/>
</svg>
