<svg width="20" height="20" viewBox="0 0 20 20" xmlns="http://www.w3.org/2000/svg">
<path d="M7.50001 13H12.5C12.625 12.9998 12.7455 13.0463 12.8378 13.1305C12.9301 13.2147 12.9876 13.3304 12.9989 13.4548C13.0102 13.5793 12.9745 13.7034 12.8988 13.8028C12.8231 13.9023 12.713 13.9697 12.59 13.992L12.5 14H7.50001C7.37506 14.0002 7.25456 13.9537 7.16222 13.8695C7.06989 13.7853 7.01242 13.6696 7.00113 13.5452C6.98984 13.4207 7.02555 13.2966 7.10123 13.1972C7.1769 13.0977 7.28706 13.0303 7.41001 13.008L7.50001 13ZM5.50001 9H14.5C14.625 8.99977 14.7455 9.04633 14.8378 9.13051C14.9301 9.21469 14.9876 9.33039 14.9989 9.45482C15.0102 9.57926 14.9745 9.70341 14.8988 9.80283C14.8231 9.90225 14.713 9.96974 14.59 9.992L14.5 10H5.50001C5.37506 10.0002 5.25456 9.95367 5.16222 9.86949C5.06989 9.78531 5.01242 9.66961 5.00113 9.54518C4.98984 9.42074 5.02555 9.29659 5.10123 9.19717C5.1769 9.09775 5.28706 9.03026 5.41001 9.008L5.50001 9ZM3.50001 5H16.5C16.625 4.99977 16.7455 5.04633 16.8378 5.13051C16.9301 5.21469 16.9876 5.33039 16.9989 5.45482C17.0102 5.57926 16.9745 5.70341 16.8988 5.80283C16.8231 5.90225 16.713 5.96974 16.59 5.992L16.5 6H3.50001C3.37506 6.00023 3.25456 5.95367 3.16222 5.86949C3.06989 5.78531 3.01242 5.66961 3.00113 5.54518C2.98984 5.42074 3.02555 5.29659 3.10123 5.19717C3.1769 5.09775 3.28706 5.03026 3.41001 5.008L3.50001 5Z" />
</svg>
