<svg width="20" height="20" viewBox="0 0 20 20" xmlns="http://www.w3.org/2000/svg">
<path d="M4.16671 14.1667C4.38772 14.1667 4.59968 14.2545 4.75596 14.4108C4.91224 14.5671 5.00004 14.7791 5.00004 15.0001V16.6667H15V15.0001C15 14.7791 15.0878 14.5671 15.2441 14.4108C15.4004 14.2545 15.6124 14.1667 15.8334 14.1667C16.0544 14.1667 16.2663 14.2545 16.4226 14.4108C16.5789 14.5671 16.6667 14.7791 16.6667 15.0001V16.6667C16.6667 17.1088 16.4911 17.5327 16.1786 17.8453C15.866 18.1578 15.4421 18.3334 15 18.3334H5.00004C4.55801 18.3334 4.13409 18.1578 3.82153 17.8453C3.50897 17.5327 3.33337 17.1088 3.33337 16.6667V15.0001C3.33337 14.7791 3.42117 14.5671 3.57745 14.4108C3.73373 14.2545 3.94569 14.1667 4.16671 14.1667Z" />
<path d="M10.5956 13.9259C10.4393 14.0822 10.2274 14.1699 10.0064 14.1699C9.78544 14.1699 9.57352 14.0822 9.41725 13.9259L6.08392 10.5926C5.93212 10.4354 5.84812 10.2249 5.85002 10.0064C5.85192 9.78793 5.93956 9.57892 6.09407 9.42442C6.24857 9.26991 6.45758 9.18227 6.67608 9.18037C6.89458 9.17847 7.10508 9.26247 7.26225 9.41427L9.17308 11.3251L9.17308 2.50343C9.17308 2.28242 9.26088 2.07046 9.41716 1.91418C9.57344 1.7579 9.7854 1.6701 10.0064 1.6701C10.2274 1.6701 10.4394 1.7579 10.5957 1.91418C10.752 2.07046 10.8397 2.28242 10.8397 2.50343L10.8397 11.3251L12.7506 9.41427C12.9078 9.26247 13.1183 9.17847 13.3367 9.18037C13.5552 9.18227 13.7643 9.26991 13.9188 9.42442C14.0733 9.57892 14.1609 9.78793 14.1628 10.0064C14.1647 10.2249 14.0807 10.4354 13.9289 10.5926L10.5956 13.9259Z" />
</svg>
