<svg width="47" height="47" viewBox="0 0 47 47" fill="none" xmlns="http://www.w3.org/2000/svg">
<path d="M29.7618 11.0493C33.1165 11.0679 34.9333 11.2167 36.1184 12.4018C37.4737 13.7571 37.4737 15.9383 37.4737 20.3008V29.5551C37.4737 33.9175 37.4737 36.0988 36.1184 37.454C34.7631 38.8093 32.5819 38.8093 28.2194 38.8093H18.9652C14.6027 38.8093 12.4214 38.8093 11.0662 37.454C9.71094 36.0988 9.71094 33.9175 9.71094 29.5551V20.3008C9.71094 15.9383 9.71094 13.7571 11.0662 12.4018C12.2513 11.2167 14.0681 11.0679 17.4228 11.0493" stroke="#EB8247" stroke-width="1.92797"/>
<path d="M21.2793 26.4705L31.3047 26.4705" stroke="#EB8247" stroke-width="1.92797" stroke-linecap="round"/>
<path d="M15.8809 26.4705H16.652" stroke="#EB8247" stroke-width="1.92797" stroke-linecap="round"/>
<path d="M15.8809 21.0721H16.652" stroke="#EB8247" stroke-width="1.92797" stroke-linecap="round"/>
<path d="M15.8809 31.8688H16.652" stroke="#EB8247" stroke-width="1.92797" stroke-linecap="round"/>
<path d="M21.2793 21.0721H31.3047" stroke="#EB8247" stroke-width="1.92797" stroke-linecap="round"/>
<path d="M21.2793 31.8688H31.3047" stroke="#EB8247" stroke-width="1.92797" stroke-linecap="round"/>
<path d="M17.4238 10.2755C17.4238 8.99779 18.4596 7.96198 19.7374 7.96198H27.4493C28.727 7.96198 29.7628 8.99779 29.7628 10.2755V11.8179C29.7628 13.0957 28.727 14.1315 27.4493 14.1315H19.7374C18.4596 14.1315 17.4238 13.0957 17.4238 11.8179V10.2755Z" stroke="#EB8247" stroke-width="1.92797"/>
</svg>
