<svg width="30" height="30" viewBox="0 0 30 30" fill="none" xmlns="http://www.w3.org/2000/svg">
<path d="M9.5142 5.76303C9.3512 5.9246 9.22188 6.11651 9.13365 6.32777C9.04542 6.53904 9 6.76552 9 6.99425C9 7.22297 9.04542 7.44945 9.13365 7.66072C9.22188 7.87199 9.3512 8.0639 9.5142 8.22546L16.3364 15.0015L9.5142 21.7776C9.18544 22.1041 9.00074 22.547 9.00074 23.0088C9.00074 23.4706 9.18544 23.9135 9.5142 24.24C9.84296 24.5666 10.2889 24.75 10.7538 24.75C11.2187 24.75 11.6646 24.5666 11.9934 24.24L20.0639 16.224C20.2269 16.0624 20.3562 15.8705 20.4445 15.6593C20.5327 15.448 20.5781 15.2215 20.5781 14.9928C20.5781 14.7641 20.5327 14.5376 20.4445 14.3263C20.3562 14.115 20.2269 13.9231 20.0639 13.7616L11.9934 5.74556C11.3252 5.08193 10.1999 5.08193 9.5142 5.76303Z" fill="#EB8247"/>
</svg>
