<svg width="30" height="30" viewBox="0 0 30 30" fill="none" xmlns="http://www.w3.org/2000/svg">
<path d="M6.17498 8.2C5.84378 7.84456 5.66347 7.37445 5.67205 6.88869C5.68062 6.40294 5.8774 5.93948 6.22093 5.59595C6.56446 5.25241 7.02792 5.05563 7.51368 5.04706C7.99943 5.03849 8.46954 5.2188 8.82498 5.55L16.95 13.675C17.3011 14.0266 17.4983 14.5031 17.4983 15C17.4983 15.4969 17.3011 15.9734 16.95 16.325L8.82498 24.45C8.46954 24.7812 7.99943 24.9615 7.51368 24.9529C7.02792 24.9444 6.56446 24.7476 6.22093 24.4041C5.8774 24.0605 5.68062 23.5971 5.67205 23.1113C5.66347 22.6256 5.84378 22.1554 6.17498 21.8L12.975 15L6.17498 8.2ZM24.375 25C24.8723 25 25.3492 24.8025 25.7008 24.4508C26.0524 24.0992 26.25 23.6223 26.25 23.125V6.875C26.25 6.37772 26.0524 5.90081 25.7008 5.54917C25.3492 5.19754 24.8723 5 24.375 5C23.8777 5 23.4008 5.19754 23.0492 5.54917C22.6975 5.90081 22.5 6.37772 22.5 6.875V23.125C22.5 24.16 23.34 25 24.375 25Z" fill="#EB8247"/>
</svg>
