<svg width="20" height="20" viewBox="0 0 20 20" xmlns="http://www.w3.org/2000/svg">
<path d="M5.83936 10C5.83936 9.83425 5.9052 9.67527 6.02241 9.55806C6.13962 9.44085 6.2986 9.37501 6.46436 9.37501H9.37519V6.46417C9.37519 6.29841 9.44104 6.13944 9.55825 6.02223C9.67546 5.90502 9.83443 5.83917 10.0002 5.83917C10.1659 5.83917 10.3249 5.90502 10.4421 6.02223C10.5593 6.13944 10.6252 6.29841 10.6252 6.46417V9.37501H13.536C13.7018 9.37501 13.8608 9.44085 13.978 9.55806C14.0952 9.67527 14.161 9.83425 14.161 10C14.161 10.1658 14.0952 10.3247 13.978 10.4419C13.8608 10.5592 13.7018 10.625 13.536 10.625H10.6252V13.5358C10.6252 13.7016 10.5593 13.8606 10.4421 13.9778C10.3249 14.095 10.1659 14.1608 10.0002 14.1608C9.83443 14.1608 9.67546 14.095 9.55825 13.9778C9.44104 13.8606 9.37519 13.7016 9.37519 13.5358V10.625H6.46436C6.2986 10.625 6.13962 10.5592 6.02241 10.4419C5.9052 10.3247 5.83936 10.1658 5.83936 10Z" />
<path fill-rule="evenodd" clip-rule="evenodd" d="M6.09729 3.14084C8.69101 2.8533 11.3086 2.8533 13.9023 3.14084C15.4248 3.31084 16.654 4.51 16.8323 6.04084C17.1406 8.67167 17.1406 11.3292 16.8323 13.96C16.6531 15.4908 15.424 16.6892 13.9023 16.86C11.3086 17.1476 8.69101 17.1476 6.09729 16.86C4.57479 16.6892 3.34562 15.4908 3.16729 13.96C2.8596 11.3292 2.8596 8.67159 3.16729 6.04084C3.34562 4.51 4.57562 3.31084 6.09729 3.14084ZM13.764 4.3825C11.2622 4.1052 8.7374 4.1052 6.23562 4.3825C5.77249 4.43388 5.3402 4.6399 5.0086 4.96727C4.677 5.29464 4.46545 5.72424 4.40812 6.18667C4.11174 8.72081 4.11174 11.2809 4.40812 13.815C4.46562 14.2773 4.67725 14.7067 5.00884 15.0339C5.34043 15.3611 5.77261 15.567 6.23562 15.6183C8.71645 15.895 11.2831 15.895 13.764 15.6183C14.2268 15.5668 14.6588 15.3608 14.9902 15.0337C15.3217 14.7065 15.5332 14.2772 15.5906 13.815C15.887 11.2809 15.887 8.72081 15.5906 6.18667C15.533 5.72466 15.3214 5.29554 14.99 4.96852C14.6586 4.6415 14.2267 4.43565 13.764 4.38417" />
</svg>
