<svg width="13" height="14" viewBox="0 0 13 14" xmlns="http://www.w3.org/2000/svg">
<path d="M6.57658 0.179077C6.83225 0.179077 7.07744 0.280639 7.25822 0.461421C7.439 0.642203 7.54057 0.887396 7.54057 1.14306L7.54057 5.63265L12.0302 5.63265C12.2858 5.63265 12.531 5.73421 12.7118 5.915C12.8926 6.09578 12.9941 6.34097 12.9941 6.59663C12.9941 6.8523 12.8926 7.09749 12.7118 7.27827C12.531 7.45905 12.2858 7.56062 12.0302 7.56062L7.54057 7.56062L7.54057 12.0502C7.54057 12.3059 7.439 12.5511 7.25822 12.7318C7.07744 12.9126 6.83225 13.0142 6.57658 13.0142C6.32092 13.0142 6.07573 12.9126 5.89495 12.7318C5.71416 12.5511 5.6126 12.3059 5.6126 12.0502L5.6126 7.56062L1.12301 7.56062C0.867346 7.56062 0.622152 7.45905 0.441371 7.27827C0.260588 7.09749 0.159027 6.8523 0.159027 6.59663C0.159027 6.34097 0.260588 6.09578 0.441371 5.91499C0.622152 5.73421 0.867347 5.63265 1.12301 5.63265L5.6126 5.63265L5.6126 1.14306C5.6126 0.887396 5.71416 0.642203 5.89495 0.461421C6.07573 0.280639 6.32092 0.179077 6.57658 0.179077Z"/>
</svg>
