<svg width="20" height="20" viewBox="0 0 20 20" xmlns="http://www.w3.org/2000/svg">
<path d="M14.0833 2.5C14.3092 2.49988 14.5271 2.58317 14.6954 2.73389C14.8636 2.8846 14.9703 3.09213 14.995 3.31667L15 3.41667V5.83333H15.8333C16.471 5.8333 17.0846 6.07694 17.5485 6.5144C18.0125 6.95187 18.2917 7.55009 18.3291 8.18667L18.3333 8.33333V14.1667C18.3334 14.5871 18.1746 14.9921 17.8887 15.3005C17.6028 15.6088 17.2109 15.7976 16.7916 15.8292L16.6666 15.8333H15V17.4167C15.0001 17.6425 14.9168 17.8605 14.7661 18.0288C14.6154 18.197 14.4078 18.3037 14.1833 18.3283L14.0833 18.3333H5.91663C5.69074 18.3334 5.47277 18.2502 5.30453 18.0994C5.13628 17.9487 5.0296 17.7412 5.00496 17.5167L4.99996 17.4167V15.8333H3.33329C2.91281 15.8335 2.50782 15.6747 2.1995 15.3888C1.89118 15.1028 1.70233 14.711 1.67079 14.2917L1.66663 14.1667V8.33333C1.66659 7.69566 1.91023 7.08207 2.3477 6.61812C2.78516 6.15416 3.38338 5.87491 4.01996 5.8375L4.16663 5.83333H4.99996V3.41667C4.99984 3.19079 5.08313 2.97281 5.23385 2.80457C5.38456 2.63632 5.59209 2.52964 5.81663 2.505L5.91663 2.5H14.0833ZM13.3333 13.3333H6.66663V16.6667H13.3333V13.3333ZM15.8333 7.5H4.16663C3.96251 7.50003 3.76551 7.57496 3.61298 7.7106C3.46045 7.84623 3.36301 8.03312 3.33913 8.23583L3.33329 8.33333V14.1667H4.99996V12.5833C4.99984 12.3575 5.08313 12.1395 5.23385 11.9712C5.38456 11.803 5.59209 11.6963 5.81663 11.6717L5.91663 11.6667H14.0833C14.3092 11.6666 14.5271 11.7498 14.6954 11.9006C14.8636 12.0513 14.9703 12.2588 14.995 12.4833L15 12.5833V14.1667H16.6666V8.33333C16.6666 8.11232 16.5788 7.90036 16.4225 7.74408C16.2663 7.5878 16.0543 7.5 15.8333 7.5ZM14.1666 8.33333C14.379 8.33357 14.5833 8.4149 14.7378 8.56071C14.8922 8.70651 14.9852 8.90579 14.9976 9.11783C15.01 9.32986 14.9411 9.53865 14.8047 9.70153C14.6684 9.8644 14.475 9.96908 14.2641 9.99417L14.1666 10H12.5C12.2876 9.99976 12.0833 9.91843 11.9288 9.77263C11.7744 9.62682 11.6814 9.42754 11.669 9.2155C11.6565 9.00347 11.7255 8.79468 11.8618 8.63181C11.9982 8.46893 12.1915 8.36425 12.4025 8.33917L12.5 8.33333H14.1666ZM13.3333 4.16667H6.66663V5.83333H13.3333V4.16667Z"/>
</svg>
