<svg width="20" height="20" viewBox="0 0 20 20" fill="none" xmlns="http://www.w3.org/2000/svg">
<path d="M7.5013 16.6668H5.0013C4.11725 16.6668 3.2694 16.3156 2.64428 15.6905C2.01916 15.0654 1.66797 14.2176 1.66797 13.3335V5.83351C1.66797 4.94945 2.01916 4.1016 2.64428 3.47648C3.2694 2.85136 4.11725 2.50017 5.0013 2.50017H14.168C15.052 2.50017 15.8999 2.85136 16.525 3.47648C17.1501 4.1016 17.5013 4.94945 17.5013 5.83351V8.33351M6.66797 1.66684V3.33351M12.5013 1.66684V3.33351M1.66797 6.66684H17.5013M15.418 13.036L14.168 14.286" stroke="white" stroke-width="1.25" stroke-linecap="round" stroke-linejoin="round"/>
<path d="M14.1686 18.3335C16.4698 18.3335 18.3353 16.468 18.3353 14.1668C18.3353 11.8657 16.4698 10.0002 14.1686 10.0002C11.8674 10.0002 10.002 11.8657 10.002 14.1668C10.002 16.468 11.8674 18.3335 14.1686 18.3335Z" stroke="white" stroke-width="1.25" stroke-linecap="round" stroke-linejoin="round"/>
</svg>
