<svg width="20" height="20" viewBox="0 0 20 20" xmlns="http://www.w3.org/2000/svg">
<g opacity="0.5">
<path d="M14.0325 7.62099C14.0325 10.986 11.295 13.723 7.92999 13.723C4.56449 13.723 1.82649 10.9855 1.82649 7.62099C1.82649 4.25649 4.56449 1.51899 7.92999 1.51899C11.295 1.51899 14.0325 4.25649 14.0325 7.62099ZM2.26649 7.62099C2.26649 10.7435 4.80749 13.2835 7.93049 13.2835C11.053 13.2835 13.5935 10.7435 13.5935 7.62099C13.5935 4.49849 11.053 1.95849 7.93049 1.95849C4.80749 1.95849 2.26649 4.49849 2.26649 7.62099Z"/>
<path d="M8.15 2.91549C8.15 2.97384 8.12683 3.02979 8.08557 3.07105C8.04431 3.11231 7.98835 3.13549 7.93001 3.13549C5.45601 3.13549 3.44301 5.14799 3.44301 7.62149C3.44301 7.67984 3.41983 7.73579 3.37857 7.77705C3.33731 7.81831 3.28135 7.84149 3.22301 7.84149C3.16466 7.84149 3.1087 7.81831 3.06744 7.77705C3.02618 7.73579 3.00301 7.67984 3.00301 7.62149C3.00301 4.90549 5.21301 2.69599 7.92951 2.69599C7.95841 2.69586 7.98707 2.70144 8.01381 2.71241C8.04056 2.72338 8.06487 2.73953 8.08536 2.75992C8.10585 2.78032 8.12211 2.80456 8.1332 2.83126C8.1443 2.85795 8.15001 2.88658 8.15 2.91549ZM18.173 18.261C18.1729 18.3056 18.1592 18.349 18.1339 18.3857C18.1085 18.4223 18.0726 18.4504 18.0309 18.4662C17.9892 18.4819 17.9437 18.4847 17.9004 18.474C17.8571 18.4634 17.8181 18.4398 17.7885 18.4065L12.0145 11.8485C11.9788 11.8044 11.9615 11.7482 11.9662 11.6917C11.9709 11.6352 11.9973 11.5826 12.0398 11.5451C12.0823 11.5075 12.1377 11.4879 12.1944 11.4902C12.2511 11.4925 12.3047 11.5166 12.344 11.5575L18.118 18.116C18.1535 18.1559 18.1731 18.2075 18.173 18.261Z" />
</g>
</svg>
