<svg width="20" height="20" viewBox="0 0 20 20" xmlns="http://www.w3.org/2000/svg">
<path fill-rule="evenodd" clip-rule="evenodd" d="M10 6.875C9.1712 6.875 8.37634 7.20424 7.79029 7.79029C7.20424 8.37634 6.875 9.1712 6.875 10C6.875 10.8288 7.20424 11.6237 7.79029 12.2097C8.37634 12.7958 9.1712 13.125 10 13.125C10.8288 13.125 11.6237 12.7958 12.2097 12.2097C12.7958 11.6237 13.125 10.8288 13.125 10C13.125 9.1712 12.7958 8.37634 12.2097 7.79029C11.6237 7.20424 10.8288 6.875 10 6.875ZM8.125 10C8.125 9.50272 8.32254 9.02581 8.67417 8.67417C9.02581 8.32254 9.50272 8.125 10 8.125C10.4973 8.125 10.9742 8.32254 11.3258 8.67417C11.6775 9.02581 11.875 9.50272 11.875 10C11.875 10.4973 11.6775 10.9742 11.3258 11.3258C10.9742 11.6775 10.4973 11.875 10 11.875C9.50272 11.875 9.02581 11.6775 8.67417 11.3258C8.32254 10.9742 8.125 10.4973 8.125 10Z"/>
<path fill-rule="evenodd" clip-rule="evenodd" d="M9.97918 1.04166C9.60835 1.04166 9.29918 1.04166 9.04585 1.05832C8.7869 1.06911 8.53152 1.1226 8.29002 1.21666C8.01189 1.33173 7.75916 1.50047 7.54625 1.71323C7.33335 1.92599 7.16444 2.17861 7.04918 2.45666C6.92835 2.74832 6.89585 3.05666 6.88252 3.39166C6.88118 3.51417 6.84875 3.63434 6.78826 3.7409C6.72777 3.84745 6.6412 3.93689 6.53668 4.00082C6.42908 4.05958 6.30832 4.09002 6.18573 4.08929C6.06314 4.08856 5.94274 4.05668 5.83585 3.99666C5.53918 3.83999 5.25585 3.71416 4.94252 3.67249C4.64414 3.63324 4.34095 3.65315 4.05026 3.73108C3.75958 3.809 3.48709 3.94342 3.24835 4.12666C3.04649 4.28906 2.87278 4.48361 2.73418 4.70249C2.59252 4.91416 2.43752 5.18166 2.25252 5.50249L2.23168 5.53916C2.04585 5.85999 1.89168 6.12749 1.78002 6.35582C1.66335 6.59416 1.57168 6.82916 1.53835 7.08916C1.45885 7.69165 1.62192 8.30105 1.99168 8.78332C2.18418 9.03416 2.43502 9.21666 2.71835 9.39499C2.82398 9.45744 2.91199 9.54574 2.97409 9.65158C3.0362 9.75742 3.07035 9.87731 3.07335 9.99999C3.07035 10.1227 3.0362 10.2426 2.97409 10.3484C2.91199 10.4542 2.82398 10.5425 2.71835 10.605C2.43502 10.7833 2.18502 10.9658 1.99168 11.2167C1.80845 11.4554 1.67403 11.7279 1.5961 12.0186C1.51818 12.3093 1.49827 12.6124 1.53752 12.9108C1.57168 13.1708 1.66252 13.4058 1.77918 13.6442C1.89168 13.8725 2.04585 14.14 2.23168 14.4608L2.25252 14.4975C2.43752 14.8183 2.59252 15.0858 2.73418 15.2975C2.88168 15.5167 3.04002 15.7142 3.24835 15.8725C3.48702 16.0559 3.75949 16.1904 4.05017 16.2685C4.34086 16.3466 4.64408 16.3666 4.94252 16.3275C5.25585 16.2858 5.53918 16.1608 5.83585 16.0033C5.94261 15.9434 6.06287 15.9115 6.18531 15.9108C6.30776 15.9101 6.42838 15.9405 6.53585 15.9992C6.64095 16.0626 6.72806 16.1519 6.78889 16.2585C6.84971 16.3651 6.88223 16.4856 6.88335 16.6083C6.89585 16.9433 6.92835 17.2517 7.05002 17.5433C7.16509 17.8214 7.33383 18.0742 7.54659 18.2871C7.75935 18.5 8.01197 18.6689 8.29002 18.7842C8.53168 18.8842 8.78168 18.9233 9.04585 18.9408C9.29918 18.9583 9.60835 18.9583 9.97918 18.9583H10.0208C10.3917 18.9583 10.7008 18.9583 10.9542 18.9417C11.2192 18.9233 11.4683 18.8842 11.71 18.7833C11.9881 18.6682 12.2409 18.4995 12.4538 18.2868C12.6667 18.074 12.8356 17.8214 12.9508 17.5433C13.0717 17.2517 13.1042 16.9433 13.1175 16.6083C13.1187 16.4857 13.1511 16.3653 13.2116 16.2586C13.2721 16.1519 13.3587 16.0623 13.4633 15.9983C13.571 15.9397 13.6918 15.9094 13.8144 15.9103C13.937 15.9111 14.0574 15.9432 14.1642 16.0033C14.4608 16.16 14.7442 16.2858 15.0575 16.3267C15.66 16.4062 16.2694 16.2431 16.7517 15.8733C16.96 15.7133 17.1183 15.5167 17.2658 15.2975C17.4075 15.0858 17.5625 14.8183 17.7475 14.4975L17.7683 14.4608C17.9542 14.14 18.1083 13.8725 18.22 13.6442C18.3367 13.4058 18.4283 13.17 18.4617 12.9108C18.5412 12.3083 18.3781 11.6989 18.0083 11.2167C17.8158 10.9658 17.565 10.7833 17.2817 10.605C17.176 10.5425 17.088 10.4542 17.0259 10.3484C16.9638 10.2426 16.9297 10.1227 16.9267 9.99999C16.9267 9.76832 17.0533 9.53832 17.2817 9.39499C17.565 9.21666 17.815 9.03416 18.0083 8.78332C18.1916 8.54459 18.326 8.2721 18.4039 7.98141C18.4819 7.69072 18.5018 7.38754 18.4625 7.08916C18.4229 6.83308 18.3412 6.58531 18.2208 6.35582C18.0786 6.07895 17.9277 5.80659 17.7683 5.53916L17.7475 5.50249C17.5953 5.2309 17.4347 4.9641 17.2658 4.70249C17.1273 4.48384 16.9535 4.28956 16.7517 4.12749C16.513 3.94411 16.2405 3.80954 15.9499 3.73147C15.6592 3.6534 15.3559 3.63336 15.0575 3.67249C14.7442 3.71416 14.4608 3.83916 14.1642 3.99666C14.0574 4.05654 13.9371 4.08833 13.8147 4.08906C13.6923 4.08979 13.5717 4.05943 13.4642 4.00082C13.3594 3.93709 13.2725 3.84774 13.2117 3.74117C13.1509 3.63461 13.1182 3.51433 13.1167 3.39166C13.1042 3.05666 13.0717 2.74832 12.95 2.45666C12.8349 2.17853 12.6662 1.9258 12.4534 1.7129C12.2407 1.49999 11.9881 1.33108 11.71 1.21582C11.4683 1.11582 11.2183 1.07666 10.9542 1.05916C10.7008 1.04166 10.3917 1.04166 10.0208 1.04166H9.97918ZM8.76835 2.37082C8.83252 2.34416 8.93002 2.31999 9.13085 2.30582C9.33668 2.29166 9.60335 2.29166 10 2.29166C10.3967 2.29166 10.6633 2.29166 10.8692 2.30582C11.07 2.31999 11.1675 2.34416 11.2317 2.37082C11.4875 2.47666 11.69 2.67916 11.7958 2.93499C11.8292 3.01499 11.8567 3.14082 11.8675 3.43832C11.8925 4.09832 12.2333 4.73416 12.8383 5.08332C13.4433 5.43332 14.1642 5.40999 14.7483 5.10166C15.0117 4.96249 15.1342 4.92332 15.2208 4.91249C15.4947 4.87631 15.7716 4.95035 15.9908 5.11832C16.0458 5.16082 16.1158 5.23332 16.2283 5.39999C16.3442 5.57166 16.4775 5.80249 16.6758 6.14582C16.8742 6.48916 17.0067 6.72082 17.0975 6.90582C17.1867 7.08666 17.2142 7.18332 17.2225 7.25249C17.2587 7.52629 17.1847 7.80326 17.0167 8.02249C16.9633 8.09166 16.8683 8.17832 16.6167 8.33666C16.0567 8.68832 15.6767 9.30166 15.6767 9.99999C15.6767 10.6983 16.0567 11.3117 16.6167 11.6633C16.8683 11.8217 16.9633 11.9083 17.0167 11.9775C17.185 12.1967 17.2583 12.4733 17.2225 12.7475C17.2142 12.8167 17.1858 12.9142 17.0975 13.0942C17.0067 13.28 16.8742 13.5108 16.6758 13.8542C16.4775 14.1975 16.3433 14.4283 16.2283 14.6C16.1158 14.7667 16.0458 14.8392 15.9908 14.8817C15.7716 15.0496 15.4947 15.1237 15.2208 15.0875C15.1342 15.0767 15.0125 15.0375 14.7483 14.8983C14.165 14.59 13.4433 14.5667 12.8383 14.9158C12.2333 15.2658 11.8925 15.9017 11.8675 16.5617C11.8567 16.8592 11.8292 16.985 11.7958 17.065C11.7435 17.1915 11.6667 17.3064 11.5699 17.4032C11.4731 17.5 11.3582 17.5768 11.2317 17.6292C11.1675 17.6558 11.07 17.68 10.8692 17.6942C10.6633 17.7083 10.3967 17.7083 10 17.7083C9.60335 17.7083 9.33668 17.7083 9.13085 17.6942C8.93002 17.68 8.83252 17.6558 8.76835 17.6292C8.64185 17.5768 8.52691 17.5 8.43011 17.4032C8.33331 17.3064 8.25653 17.1915 8.20418 17.065C8.17085 16.985 8.14335 16.8592 8.13251 16.5617C8.10752 15.9017 7.76668 15.2658 7.16168 14.9167C6.55668 14.5667 5.83585 14.59 5.25168 14.8983C4.98835 15.0375 4.86585 15.0767 4.77918 15.0875C4.50538 15.1237 4.22841 15.0496 4.00918 14.8817C3.95418 14.8392 3.88418 14.7667 3.77168 14.6C3.61494 14.356 3.46571 14.1073 3.32418 13.8542C3.12585 13.5108 2.99335 13.2792 2.90252 13.0942C2.81335 12.9133 2.78585 12.8167 2.77752 12.7475C2.74134 12.4737 2.81537 12.1967 2.98335 11.9775C3.03668 11.9083 3.13168 11.8217 3.38335 11.6633C3.94335 11.3117 4.32335 10.6983 4.32335 9.99999C4.32335 9.30166 3.94335 8.68832 3.38335 8.33666C3.13168 8.17832 3.03668 8.09166 2.98335 8.02249C2.81537 7.80326 2.74134 7.52629 2.77752 7.25249C2.78585 7.18332 2.81418 7.08582 2.90252 6.90582C2.99335 6.71999 3.12585 6.48916 3.32418 6.14582C3.52252 5.80249 3.65668 5.57166 3.77168 5.39999C3.88418 5.23332 3.95418 5.16082 4.00918 5.11832C4.22841 4.95035 4.50538 4.87631 4.77918 4.91249C4.86585 4.92332 4.98752 4.96249 5.25168 5.10166C5.83502 5.40999 6.55668 5.43332 7.16168 5.08332C7.76668 4.73416 8.10752 4.09832 8.13251 3.43832C8.14335 3.14082 8.17085 3.01499 8.20418 2.93499C8.31002 2.67916 8.51252 2.47666 8.76835 2.37082Z" />
</svg>
