<svg width="20" height="20" viewBox="0 0 20 20" fill="none" xmlns="http://www.w3.org/2000/svg">
<path d="M8.77503 6.27502C8.65785 6.39206 8.49899 6.4578 8.33337 6.4578C8.16774 6.4578 8.00889 6.39206 7.8917 6.27502L7.2917 5.67502V14.1667C7.2917 14.3324 7.22585 14.4914 7.10864 14.6086C6.99143 14.7258 6.83246 14.7917 6.6667 14.7917C6.50094 14.7917 6.34197 14.7258 6.22476 14.6086C6.10755 14.4914 6.0417 14.3324 6.0417 14.1667V5.67502L5.4417 6.27502C5.38448 6.33643 5.31548 6.38568 5.23882 6.41984C5.16215 6.454 5.07939 6.47237 4.99547 6.47385C4.91155 6.47533 4.82819 6.45989 4.75037 6.42846C4.67255 6.39702 4.60185 6.35023 4.5425 6.29088C4.48315 6.23154 4.43637 6.16084 4.40493 6.08302C4.3735 6.00519 4.35806 5.92184 4.35954 5.83792C4.36102 5.754 4.37939 5.67124 4.41355 5.59457C4.44771 5.51791 4.49696 5.4489 4.55837 5.39169L6.22503 3.72502C6.34222 3.60798 6.50108 3.54224 6.6667 3.54224C6.83233 3.54224 6.99118 3.60798 7.10837 3.72502L8.77503 5.39169C8.89208 5.50887 8.95782 5.66773 8.95782 5.83335C8.95782 5.99898 8.89208 6.15783 8.77503 6.27502ZM12.7084 14.325L12.1084 13.725C12.0511 13.6636 11.9821 13.6144 11.9055 13.5802C11.8288 13.546 11.7461 13.5277 11.6621 13.5262C11.5782 13.5247 11.4949 13.5401 11.417 13.5716C11.3392 13.603 11.2685 13.6498 11.2092 13.7092C11.1498 13.7685 11.103 13.8392 11.0716 13.917C11.0402 13.9948 11.0247 14.0782 11.0262 14.1621C11.0277 14.246 11.0461 14.3288 11.0802 14.4055C11.1144 14.4821 11.1636 14.5511 11.225 14.6084L12.8917 16.275C13.0089 16.3921 13.1677 16.4578 13.3334 16.4578C13.499 16.4578 13.6578 16.3921 13.775 16.275L15.4417 14.6084C15.5031 14.5511 15.5524 14.4821 15.5865 14.4055C15.6207 14.3288 15.639 14.246 15.6405 14.1621C15.642 14.0782 15.6266 13.9948 15.5951 13.917C15.5637 13.8392 15.5169 13.7685 15.4576 13.7092C15.3982 13.6498 15.3275 13.603 15.2497 13.5716C15.1719 13.5401 15.0885 13.5247 15.0046 13.5262C14.9207 13.5277 14.8379 13.546 14.7613 13.5802C14.6846 13.6144 14.6156 13.6636 14.5584 13.725L13.9584 14.325V5.83335C13.9584 5.66759 13.8925 5.50862 13.7753 5.39141C13.6581 5.2742 13.4991 5.20835 13.3334 5.20835C13.1676 5.20835 13.0086 5.2742 12.8914 5.39141C12.7742 5.50862 12.7084 5.66759 12.7084 5.83335V14.325Z" fill="#EB8247"/>
</svg>
