<svg width="25" height="25" viewBox="0 0 25 25" fill="none" xmlns="http://www.w3.org/2000/svg">
<path d="M23.0882 3.75H1.91176C1.73625 3.75 1.56793 3.81972 1.44383 3.94383C1.31972 4.06793 1.25 4.23625 1.25 4.41176V19.4118C1.25 19.8213 1.41268 20.214 1.70226 20.5036C1.99184 20.7932 2.38459 20.9559 2.79412 20.9559H22.2059C22.6154 20.9559 23.0082 20.7932 23.2977 20.5036C23.5873 20.214 23.75 19.8213 23.75 19.4118V4.41176C23.75 4.23625 23.6803 4.06793 23.5562 3.94383C23.4321 3.81972 23.2637 3.75 23.0882 3.75ZM2.57353 10.3676H7.42647V14.3382H2.57353V10.3676ZM8.75 10.3676H22.4265V14.3382H8.75V10.3676ZM22.4265 5.07353V9.04412H2.57353V5.07353H22.4265ZM2.57353 19.4118V15.6618H7.42647V19.6324H2.79412C2.73561 19.6324 2.67951 19.6091 2.63814 19.5677C2.59677 19.5264 2.57353 19.4703 2.57353 19.4118ZM22.2059 19.6324H8.75V15.6618H22.4265V19.4118C22.4265 19.4703 22.4032 19.5264 22.3619 19.5677C22.3205 19.6091 22.2644 19.6324 22.2059 19.6324Z" fill="#EB8247"/>
</svg>
