<svg width="24" height="27" viewBox="0 0 24 27" fill="none" xmlns="http://www.w3.org/2000/svg">
<path d="M4.69183 26.3333C3.94738 26.3333 3.31239 26.0711 2.78683 25.5467C2.26239 25.0222 2.00016 24.3872 2.00016 23.6417V2.99999H0.333496V1.33332H7.00016V0.0499878H17.0002V1.33332H23.6668V2.99999H22.0002V23.6417C22.0002 24.4083 21.7435 25.0483 21.2302 25.5617C20.7157 26.0761 20.0752 26.3333 19.3085 26.3333H4.69183ZM20.3335 2.99999H3.66683V23.6417C3.66683 23.9405 3.76294 24.1861 3.95516 24.3783C4.14738 24.5705 4.39294 24.6667 4.69183 24.6667H19.3085C19.5641 24.6667 19.7991 24.56 20.0135 24.3467C20.2268 24.1322 20.3335 23.8972 20.3335 23.6417V2.99999ZM8.34683 21.3333H10.0135V6.33332H8.34683V21.3333ZM13.9868 21.3333H15.6535V6.33332H13.9868V21.3333Z" fill="#FF6D6D"/>
</svg>
