<svg width="25" height="25" viewBox="0 0 25 25" fill="none" xmlns="http://www.w3.org/2000/svg">
<path d="M7.93229 20.8333C7.46701 20.8333 7.07013 20.6694 6.74166 20.3417C6.41388 20.0139 6.24999 19.617 6.24999 19.151V6.25H5.20833V5.20833H9.37499V4.40625H15.625V5.20833H19.7917V6.25H18.75V19.151C18.75 19.6302 18.5896 20.0302 18.2687 20.351C17.9472 20.6726 17.5469 20.8333 17.0677 20.8333H7.93229ZM17.7083 6.25H7.29166V19.151C7.29166 19.3378 7.35173 19.4913 7.47187 19.6115C7.59201 19.7316 7.74548 19.7917 7.93229 19.7917H17.0677C17.2274 19.7917 17.3743 19.725 17.5083 19.5917C17.6417 19.4576 17.7083 19.3108 17.7083 19.151V6.25ZM10.2167 17.7083H11.2583V8.33333H10.2167V17.7083ZM13.7417 17.7083H14.7833V8.33333H13.7417V17.7083Z" fill="#EB8247"/>
</svg>
