<svg width="20" height="20" viewBox="0 0 20 20" fill="none" xmlns="http://www.w3.org/2000/svg">
<path d="M5.615 18C5.16833 18 4.78733 17.8404 4.472 17.5211C4.15733 17.2019 4 16.8153 4 16.3614V3.79581H3V2.78123H7V2H13V2.78123H17V3.79581H16V16.3614C16 16.8282 15.846 17.2178 15.538 17.5302C15.2293 17.8434 14.845 18 14.385 18H5.615ZM15 3.79581H5V16.3614C5 16.5434 5.05767 16.6929 5.173 16.8099C5.28833 16.9269 5.43567 16.9854 5.615 16.9854H14.385C14.5383 16.9854 14.6793 16.9205 14.808 16.7906C14.936 16.6601 15 16.517 15 16.3614V3.79581ZM7.808 14.9562H8.808V5.82498H7.808V14.9562ZM11.192 14.9562H12.192V5.82498H11.192V14.9562Z" fill="white"/>
</svg>
