<svg width="25" height="25" viewBox="0 0 25 25" fill="none" xmlns="http://www.w3.org/2000/svg">
<g clip-path="url(#clip0_26_163)">
<path d="M12.5 11.8056C13.4614 11.8056 14.4013 11.5205 15.2007 10.9864C16.0001 10.4522 16.6232 9.69301 16.9911 8.80475C17.359 7.9165 17.4553 6.93909 17.2677 5.99613C17.0801 5.05317 16.6172 4.187 15.9373 3.50716C15.2575 2.82732 14.3913 2.36435 13.4484 2.17678C12.5054 1.98921 11.528 2.08548 10.6397 2.45341C9.75148 2.82133 8.99228 3.44439 8.45813 4.2438C7.92399 5.0432 7.63889 5.98305 7.63889 6.94449C7.63889 8.23373 8.15104 9.47018 9.06268 10.3818C9.97431 11.2934 11.2108 11.8056 12.5 11.8056ZM12.5 3.47227C13.1867 3.47227 13.8581 3.67591 14.4291 4.05744C15.0001 4.43897 15.4451 4.98126 15.7079 5.61573C15.9707 6.25019 16.0395 6.94834 15.9055 7.62188C15.7715 8.29543 15.4408 8.91412 14.9552 9.39972C14.4696 9.88532 13.8509 10.216 13.1774 10.35C12.5039 10.484 11.8057 10.4152 11.1712 10.1524C10.5368 9.8896 9.99449 9.44455 9.61295 8.87355C9.23142 8.30255 9.02778 7.63123 9.02778 6.94449C9.02778 6.0236 9.3936 5.14042 10.0448 4.48926C10.6959 3.83809 11.5791 3.47227 12.5 3.47227Z" fill="#EB8247"/>
<path d="M21.1597 16.9236C20.046 15.7465 18.704 14.8089 17.2157 14.1681C15.7273 13.5274 14.1239 13.1969 12.5035 13.1969C10.883 13.1969 9.27965 13.5274 7.79129 14.1681C6.30294 14.8089 4.9609 15.7465 3.84722 16.9236C3.60577 17.1815 3.47167 17.5217 3.47222 17.8749V21.5277C3.47222 21.8961 3.61855 22.2493 3.87902 22.5098C4.13949 22.7703 4.49276 22.9166 4.86111 22.9166H20.1389C20.5072 22.9166 20.8605 22.7703 21.121 22.5098C21.3814 22.2493 21.5278 21.8961 21.5278 21.5277V17.8749C21.5302 17.5226 21.3986 17.1825 21.1597 16.9236ZM20.1389 21.5277H4.86111V17.868C5.8453 16.8317 7.03006 16.0064 8.3433 15.4425C9.65655 14.8786 11.0708 14.5878 12.5 14.5878C13.9292 14.5878 15.3435 14.8786 16.6567 15.4425C17.9699 16.0064 19.1547 16.8317 20.1389 17.868V21.5277Z" fill="#EB8247"/>
</g>
<defs>
<clipPath id="clip0_26_163">
<rect width="25" height="25" fill="white"/>
</clipPath>
</defs>
</svg>
